<?xml version="1.0" encoding="UTF-8"?>
<svg xmlns="http://www.w3.org/2000/svg" id="Layer_1" data-name="Layer 1" viewBox="0 0 24 24">
  <path d="M12,0C5.383,0,0,5.383,0,12s5.383,12,12,12,12-5.383,12-12S18.617,0,12,0Zm0,23c-6.065,0-11-4.935-11-11S5.935,1,12,1s11,4.935,11,11-4.935,11-11,11Zm0-17.973L6.229,14.679l-.007,.011c-.266,.471-.268,1.035-.006,1.51,.287,.517,.826,.806,1.365,.806,.24,0,.48-.058,.698-.179l3.721-1.605,3.694,1.584c.472,.261,1.038,.26,1.51-.006,.745-.419,1.01-1.367,.584-2.123L11.999,5.027Zm4.716,10.902c-.166,.094-.368,.095-.581-.02l-4.134-1.775-4.16,1.797c-.263,.145-.601,.051-.748-.214-.092-.167-.092-.366,0-.532L12.001,6.973l4.924,8.207c.148,.264,.054,.601-.21,.749Z"/>
</svg>
