<?xml version="1.0" encoding="UTF-8"?>
<svg xmlns="http://www.w3.org/2000/svg" id="Layer_1" data-name="Layer 1" viewBox="0 0 24 24">
  <path d="M22.496,13.344l-.003-.003c-.07-.053-.224-.212-.224-.341s.152-.287,.227-.343c.956-.719,1.504-1.779,1.504-2.908,0-2.102-1.757-3.749-4-3.749-.586,0-1.153,.147-1.704,.391,.43-.791,.704-1.588,.704-2.391,0-2.243-1.646-4-3.749-4-1.129,0-2.188,.548-2.892,1.484-.002,.001-.15,.169-.359,.169-.198,0-.342-.151-.344-.151-.719-.955-1.777-1.502-2.905-1.502-2.104,0-3.751,1.757-3.751,4,0,.803,.279,1.602,.717,2.396-.555-.248-1.127-.396-1.717-.396C1.757,6,0,7.647,0,9.749c0,1.129,.548,2.188,1.563,2.946,.002,0,.219,.13,.219,.304,0,.175-.218,.305-.278,.344-.956,.719-1.504,1.778-1.504,2.906,0,2.103,1.757,3.75,4,3.75,2.842,0,4.749-2.365,6.432-4.453,.347-.43,.684-.846,1.019-1.234,.032,2.331,.644,7.047,4.785,9.612,.082,.051,.174,.075,.264,.075,.167,0,.33-.084,.425-.236,.146-.235,.073-.543-.161-.688-3.739-2.316-4.273-6.76-4.304-8.863,.365,.417,.731,.866,1.109,1.334,1.683,2.088,3.59,4.453,6.432,4.453,2.243,0,4-1.647,4-3.75,0-1.128-.548-2.188-1.504-2.906Zm-12.843,1.576c-1.617,2.006-3.29,4.08-5.653,4.08-1.683,0-3-1.208-3-2.75,0-.811,.403-1.579,1.041-2.066,.275-.147,.741-.562,.741-1.184s-.467-1.037-.677-1.142c-.702-.529-1.105-1.297-1.105-2.109,0-1.542,1.317-2.749,3-2.749,1.428,0,2.851,1.179,4.186,2.579,.135,.145,2.576,2.886,3.104,3.422-.553,.575-1.082,1.231-1.637,1.919Zm2.354-2.711c-.579-.693-2.983-3.202-3.127-3.352-1.511-1.627-2.88-3.344-2.88-4.856,0-1.682,1.208-3,2.751-3,.811,0,1.579,.403,2.117,1.117,.044,.055,.449,.537,1.132,.537s1.089-.48,1.143-.548c.528-.703,1.297-1.105,2.108-1.105,1.542,0,2.749,1.318,2.749,3,0,1.401-1.092,2.913-2.454,4.427-.49,.485-2.967,3.113-3.539,3.781Zm7.993,6.792c-2.363,0-4.036-2.074-5.653-4.08-.555-.688-1.084-1.344-1.637-1.919,.528-.536,3.145-3.419,3.615-3.945,1.184-1.159,2.428-2.056,3.675-2.056,1.683,0,3,1.208,3,2.749,0,.812-.403,1.58-1.097,2.103-.065,.047-.634,.476-.634,1.148,0,.656,.542,1.083,.627,1.145,.701,.528,1.104,1.296,1.104,2.105,0,1.542-1.317,2.75-3,2.75Z"/>
</svg>
